<svg width="262" height="219" xmlns="http://www.w3.org/2000/svg" xmlns:xlink="http://www.w3.org/1999/xlink" overflow="hidden"><defs><clipPath id="clip0"><rect x="45" y="486" width="262" height="219"/></clipPath></defs><g clip-path="url(#clip0)" transform="translate(-45 -486)"><path d="M233.47 494.378 242.134 488.264 306.015 578.777 297.352 584.891Z" fill="#767171" fill-rule="evenodd"/><path d="M47.6905 668.869C44.1502 663.853 45.3467 656.917 50.3628 653.377L50.3628 653.377C55.379 649.836 62.3154 651.033 65.8556 656.049L87.8881 687.267C91.4284 692.283 90.2319 699.219 85.2157 702.759L85.2157 702.759C80.1996 706.3 73.2632 705.103 69.7229 700.087Z" fill="#252E2F" fill-rule="evenodd"/><path d="M179.828 538.513 237.105 619.668 82.1564 704.71 47.7906 656.017Z" fill="#595959" fill-rule="evenodd"/><path d="M172.109 538.838C167.843 532.792 169.285 524.433 175.33 520.166L219.112 489.266C225.157 485 233.517 486.442 237.783 492.487L300.579 581.461C304.845 587.506 303.403 595.866 297.358 600.132L253.576 631.033C247.531 635.299 239.171 633.857 234.905 627.812Z" fill-rule="evenodd"/><path d="M182.248 553.203C177.982 547.158 179.424 538.799 185.469 534.532L229.251 503.632C235.296 499.366 243.656 500.808 247.922 506.853L290.44 567.095C294.706 573.141 293.264 581.5 287.219 585.766L243.437 616.667C237.391 620.933 229.032 619.491 224.766 613.446Z" fill="#181717" fill-rule="evenodd"/></g></svg>